<?xml version="1.0" standalone="no"?>
<!DOCTYPE svg PUBLIC "-//W3C//DTD SVG 20010904//EN"
 "http://www.w3.org/TR/2001/REC-SVG-20010904/DTD/svg10.dtd">
<svg version="1.0" xmlns="http://www.w3.org/2000/svg"
 width="1024.000000pt" height="1536.000000pt" viewBox="0 0 1024.000000 1536.000000"
 preserveAspectRatio="xMidYMid meet">

<g transform="translate(0.000000,1536.000000) scale(0.100000,-0.100000)"
fill="#000000" stroke="none">
<path d="M0 7680 l0 -7680 5120 0 5120 0 0 7680 0 7680 -5120 0 -5120 0 0
-7680z m5963 4814 c13 -5 13 -8 2 -22 -8 -9 -82 -109 -165 -222 -82 -113 -195
-266 -250 -340 -163 -221 -287 -394 -425 -595 -33 -48 -140 -195 -237 -327
-175 -234 -184 -251 -202 -348 -3 -14 -3 18 -1 70 3 89 57 528 91 740 27 172
114 584 140 662 8 26 26 53 39 62 13 9 143 52 287 96 192 57 671 214 705 229
1 1 8 -2 16 -5z m-1266 -1916 c-3 -8 -6 -5 -6 6 -1 11 2 17 5 13 3 -3 4 -12 1
-19z m2812 -608 c22 -113 59 -335 81 -495 80 -573 156 -1041 181 -1113 13 -38
14 -50 5 -43 -31 26 -61 189 -156 841 -71 488 -99 663 -146 899 -19 96 -33
199 -33 230 2 55 2 55 14 -29 7 -47 31 -177 54 -290z m1486 -694 c83 -127 202
-312 265 -411 62 -98 163 -256 224 -350 130 -197 286 -446 310 -492 31 -61 8
-33 -37 45 -52 88 -76 122 -77 106 0 -6 7 -17 15 -24 8 -7 13 -16 10 -20 -3
-4 2 -11 11 -14 9 -4 14 -13 10 -21 -3 -8 -1 -15 4 -15 6 0 10 -5 10 -11 0 -5
-5 -7 -12 -3 -8 5 -9 2 -5 -9 3 -10 3 -17 -2 -17 -4 0 -8 -7 -8 -14 0 -11 5
-12 18 -5 12 6 20 5 25 -3 4 -7 3 -8 -4 -4 -8 4 -10 -3 -7 -24 4 -35 0 -36
-70 -15 -62 19 -670 140 -1490 295 -346 66 -355 68 -355 79 0 4 79 101 176
216 97 116 242 289 322 385 81 96 169 200 196 230 56 63 78 88 161 185 104
121 137 155 148 148 5 -3 78 -110 162 -237z m-1230 124 c3 -6 -1 -7 -9 -4 -18
7 -21 14 -7 14 6 0 13 -4 16 -10z m-10 -128 c-3 -3 -11 0 -18 7 -9 10 -8 11 6
5 10 -3 15 -9 12 -12z m40 -42 c3 -5 1 -10 -4 -10 -6 0 -11 5 -11 10 0 6 2 10
4 10 3 0 8 -4 11 -10z m75 -44 c0 -2 -8 -10 -17 -17 -16 -13 -17 -12 -4 4 13
16 21 21 21 13z m-5670 -1203 c76 -49 252 -173 465 -326 272 -196 285 -206
278 -225 -4 -14 -3 -14 5 -3 8 11 15 10 41 -8 17 -13 29 -26 26 -31 -3 -4 3
-14 13 -21 15 -13 16 -12 3 4 -16 21 1 23 19 2 7 -8 9 -15 5 -15 -5 0 0 -9 10
-20 10 -11 21 -18 23 -15 3 3 -3 12 -14 21 -10 8 -13 14 -6 12 22 -5 462 -339
458 -347 -7 -10 5 -24 36 -44 43 -27 47 -20 5 9 -21 14 -36 28 -33 31 6 6 289
-208 293 -222 3 -11 -349 -215 -372 -215 -7 0 -40 26 -72 58 -77 76 -568 574
-868 883 -240 245 -391 389 -410 389 -11 0 -17 -10 -50 -79 -11 -23 -25 -39
-32 -37 -7 3 -10 -1 -6 -9 3 -9 -3 -18 -13 -22 -18 -7 -54 -39 -54 -48 0 -3 0
-9 0 -15 0 -5 -5 -10 -11 -10 -14 0 -48 -41 -49 -58 0 -7 -6 -15 -14 -18 -7
-3 -31 -30 -52 -61 -21 -31 -43 -61 -49 -67 -19 -21 -81 -101 -97 -127 -9 -14
-52 -69 -95 -122 -43 -53 -112 -140 -153 -193 -41 -53 -91 -116 -110 -139 -19
-23 -44 -53 -55 -66 -10 -13 -61 -78 -113 -144 -52 -66 -109 -137 -127 -157
-18 -20 -30 -40 -26 -44 3 -4 -1 -5 -9 -2 -40 12 -19 49 171 299 274 362 861
1149 882 1182 49 77 65 79 157 20z m5999 -67 c587 -278 1412 -691 1476 -741
71 -54 70 -41 21 -341 -59 -355 -145 -906 -153 -971 -6 -52 -16 -67 -26 -39
-7 17 -127 186 -133 186 -2 0 7 -18 21 -41 l26 -40 -23 3 c-13 2 -31 11 -40
21 -16 18 -17 18 -27 0 -13 -22 -14 -17 -2 23 7 24 6 31 -6 31 -7 0 -12 -6 -9
-14 3 -7 1 -13 -4 -13 -9 0 -15 22 -11 43 1 5 -4 5 -10 2 -6 -4 -9 -16 -6 -26
3 -10 0 -22 -6 -26 -7 -3 -9 -3 -5 2 8 9 -15 35 -31 35 -6 0 -11 -5 -11 -11 0
-9 -4 -9 -14 0 -7 6 -24 12 -38 13 -16 1 -24 7 -21 14 2 7 -1 23 -8 36 l-12
23 22 -19 c12 -11 19 -26 17 -33 -3 -7 -1 -13 3 -13 5 0 11 7 15 15 3 8 1 15
-5 15 -6 0 -7 5 -4 10 3 6 -1 10 -10 10 -12 0 -15 6 -10 20 4 11 2 20 -4 20
-6 0 -11 -5 -11 -11 0 -6 -7 -9 -15 -6 -11 5 -12 1 -5 -18 7 -19 6 -23 -6 -18
-10 4 -12 0 -8 -10 3 -9 12 -13 22 -10 13 4 12 1 -3 -10 -16 -13 -21 -13 -23
-2 -5 20 -34 24 -55 6 -18 -15 -18 -14 -6 12 7 15 16 27 21 27 5 0 6 5 3 10
-3 6 -13 10 -21 10 -8 0 -12 -4 -9 -10 3 -5 1 -18 -4 -27 -10 -17 -10 -16 -11
2 -1 17 -3 17 -12 -5 -6 -14 -11 -28 -10 -31 1 -4 -8 -9 -19 -12 -16 -4 -18
-3 -8 9 6 8 8 14 3 15 -5 0 0 4 11 9 19 8 19 9 -2 9 -14 1 -23 -5 -23 -13 0
-8 -4 -17 -8 -20 -5 -3 -8 4 -7 15 1 21 38 53 49 42 3 -3 6 -3 6 0 0 3 -9 11
-19 17 -14 7 -22 7 -27 -2 -4 -7 -3 -8 4 -4 7 4 12 2 12 -3 0 -6 -7 -11 -15
-11 -8 0 -15 -5 -15 -11 0 -5 -5 -7 -10 -4 -15 9 -42 -15 -36 -31 3 -8 0 -11
-9 -8 -13 6 -10 34 4 34 4 0 8 7 8 15 0 8 -5 14 -11 13 -6 0 -19 2 -29 7 -10
4 -21 5 -24 1 -4 -3 1 -6 10 -6 10 0 17 -5 17 -11 0 -6 -6 -9 -12 -6 -7 2 -22
1 -33 -3 -11 -4 -27 -3 -35 4 -13 9 -13 9 -2 -6 8 -9 11 -22 8 -27 -4 -5 -1
-13 6 -17 7 -4 10 -4 6 1 -11 12 19 36 51 40 23 3 29 1 24 -11 -3 -8 -12 -13
-20 -10 -25 10 -34 -4 -18 -27 13 -21 13 -23 -5 -23 -13 0 -16 4 -9 12 7 8 6
14 -1 19 -5 3 -13 -1 -16 -9 -8 -20 -23 -11 -34 20 -6 15 -15 22 -25 18 -8 -3
-12 -11 -8 -17 4 -6 0 -8 -10 -4 -9 3 -18 1 -21 -6 -2 -7 -5 -2 -5 11 -1 13
-5 20 -11 17 -5 -3 -10 -1 -10 6 0 7 -3 9 -6 6 -4 -4 -1 -13 6 -22 11 -13 10
-14 -5 -9 -13 5 -16 15 -12 40 4 20 1 35 -6 38 -9 3 -8 8 3 16 13 10 13 11 0
7 -8 -2 -14 -14 -13 -26 2 -11 -1 -21 -6 -21 -5 0 -11 -9 -14 -20 -3 -11 -1
-18 3 -15 5 3 14 -3 19 -14 14 -26 14 -31 -4 -31 -8 0 -14 -3 -13 -7 3 -9 -5
-13 -28 -13 -12 0 -14 4 -7 13 5 6 8 34 5 60 -4 42 -6 46 -17 30 -10 -14 -16
-15 -28 -5 -12 10 -13 8 -9 -14 3 -19 1 -25 -8 -22 -8 2 -16 10 -18 18 -3 8 0
10 8 5 9 -5 11 -4 6 4 -11 17 -23 5 -23 -25 0 -21 3 -25 19 -21 20 6 20 5 2
-12 -16 -15 -21 -15 -32 -4 -7 7 -20 13 -27 13 -8 0 -19 8 -24 18 -6 9 -11 14
-11 10 0 -5 1 -9 3 -11 5 -6 -28 -35 -35 -30 -12 7 -29 -7 -23 -18 4 -5 13 -5
25 1 13 7 19 6 24 -6 5 -12 1 -14 -17 -8 -22 6 -22 6 3 -22 l25 -29 -32 28
c-17 16 -34 29 -37 28 -22 -4 -28 1 -12 10 15 9 16 13 5 20 -19 12 -32 11 -24
0 3 -6 -4 -8 -15 -6 -11 2 -18 0 -15 -6 4 -5 0 -9 -9 -9 -8 0 -17 6 -20 13 -4
8 -5 7 -5 -3 2 -30 -1 -40 -13 -38 -7 2 -12 -3 -10 -11 3 -12 1 -12 -13 -1
-15 13 -15 15 4 22 12 4 21 9 21 12 0 8 -28 0 -44 -13 -22 -18 -22 6 0 30 15
16 14 17 -5 12 -12 -3 -21 -12 -21 -20 0 -13 -3 -13 -15 -3 -9 7 -18 10 -22 6
-3 -3 -1 -6 6 -6 7 0 10 -4 6 -9 -3 -6 4 -15 15 -21 11 -6 20 -16 20 -22 0 -7
-5 -7 -14 1 -8 7 -29 14 -46 16 -26 4 -31 1 -26 -12 5 -13 4 -14 -8 -3 -14 11
-14 14 1 28 15 16 15 17 0 20 -10 2 -15 7 -12 12 3 5 13 6 22 3 11 -4 14 -3 9
5 -4 7 -13 12 -21 12 -18 0 -28 -32 -13 -42 9 -5 6 -8 -10 -8 -13 0 -20 -4
-17 -10 10 -16 -2 -12 -20 7 -13 12 -19 13 -25 4 -5 -10 -9 -9 -13 4 -4 9 -3
13 3 10 5 -3 7 0 4 8 -2 7 -11 14 -18 14 -17 0 -14 -39 4 -55 13 -11 13 -12 0
-10 -8 2 -14 -2 -13 -9 1 -6 -3 -13 -10 -16 -7 -3 -13 3 -13 13 0 10 5 16 10
13 5 -3 6 -1 2 6 -4 6 -19 10 -34 9 -21 -2 -27 1 -27 19 0 25 -17 46 -41 49
-13 2 -13 -1 3 -19 10 -12 20 -24 23 -27 10 -10 8 -25 -6 -38 -12 -11 -14 -10
-14 3 0 8 -5 15 -11 15 -5 0 -8 4 -5 9 9 14 -26 23 -38 11 -8 -8 -5 -9 9 -4
16 6 18 5 8 -7 -17 -18 -17 -34 0 -20 8 6 17 8 20 4 13 -12 7 -20 -15 -19 -16
1 -30 14 -45 41 -23 43 -28 59 -15 51 5 -3 9 1 9 9 0 11 -4 12 -14 3 -7 -6
-11 -19 -7 -30 3 -10 2 -18 -3 -17 -4 1 -15 1 -23 0 -12 -1 -12 -3 -2 -10 8
-5 12 -15 10 -23 -2 -12 -9 -13 -28 -6 -15 5 -20 12 -13 16 7 5 6 11 -5 22
-14 13 -15 12 -9 -4 6 -14 4 -17 -10 -12 -12 4 -11 0 5 -12 23 -18 21 -32 -5
-32 -9 0 -11 5 -7 13 5 8 2 8 -9 -2 -16 -12 -22 -8 -18 12 1 5 -3 6 -9 2 -6
-3 -10 3 -10 15 0 12 -4 19 -10 15 -5 -3 -6 -13 -3 -21 3 -9 0 -20 -8 -26 -11
-8 -10 -9 4 -4 11 4 16 2 11 -5 -3 -6 -14 -9 -23 -6 -20 5 -47 -19 -28 -26 7
-2 0 -4 -14 -3 -17 1 -25 6 -22 14 4 9 -5 11 -36 7 -24 -3 -52 0 -63 6 -15 8
-19 8 -14 0 4 -6 0 -11 -9 -11 -12 0 -13 -4 -6 -18 7 -14 6 -19 -4 -19 -8 0
-12 4 -9 9 9 14 -8 9 -27 -8 -16 -14 -17 -14 -14 3 2 10 4 21 4 25 1 4 8 5 16
2 8 -4 15 -1 15 5 0 12 -14 14 -48 5 -17 -5 -20 -10 -12 -19 8 -10 5 -15 -12
-20 -13 -4 -30 -13 -38 -21 -13 -11 -16 -10 -16 6 0 10 4 16 8 14 4 -3 5 3 2
13 -3 10 -2 14 3 8 14 -17 43 -18 37 -1 -3 9 -12 12 -21 9 -12 -5 -14 -2 -9 8
4 8 -1 4 -12 -8 -13 -15 -27 -20 -43 -17 -14 3 -20 2 -14 -3 23 -19 12 -29
-26 -26 -21 2 -39 -2 -39 -7 0 -6 -5 -10 -11 -10 -5 0 -7 6 -3 13 6 9 4 9 -8
-1 -14 -11 -18 -10 -28 5 -9 14 -10 15 -6 1 3 -10 -2 -18 -15 -21 -16 -4 -17
-2 -8 16 10 21 9 21 -10 -1 -17 -19 -24 -21 -41 -12 -19 10 -21 9 -19 -7 1 -7
-31 -27 -46 -28 -5 -1 -16 3 -22 8 -9 6 -13 5 -13 -3 0 -7 -7 -10 -16 -6 -8 3
-12 2 -9 -4 4 -6 -7 -10 -24 -10 -17 0 -31 -5 -31 -11 0 -7 12 -10 30 -7 17 3
30 1 30 -4 0 -4 -27 -8 -59 -8 l-60 0 -158 -141 c-87 -78 -319 -303 -515 -501
-197 -197 -358 -356 -358 -352 0 4 -13 -5 -30 -21 -16 -16 -30 -36 -30 -44 0
-11 -3 -12 -11 -4 -8 8 -18 5 -35 -14 -17 -19 -24 -22 -24 -10 0 8 6 18 13 20
9 4 9 6 -1 6 -8 1 -16 -8 -19 -19 -3 -12 -14 -20 -25 -20 -16 0 -18 3 -9 14
14 16 4 46 -15 46 -8 0 -14 10 -14 24 0 14 -5 28 -11 31 -6 5 -4 12 8 21 12 9
14 13 4 14 -7 0 -11 6 -7 15 3 9 0 15 -9 15 -8 0 -15 5 -15 10 0 6 9 10 20 10
18 0 19 3 10 20 -6 11 -8 20 -6 20 3 0 1 12 -4 26 -7 18 -7 31 0 39 8 10 8 15
-1 21 -8 4 -9 3 -5 -4 4 -7 3 -12 -2 -12 -20 0 -20 14 0 30 16 13 18 19 8 25
-9 5 -11 4 -6 -3 4 -7 2 -12 -3 -12 -6 0 -11 2 -11 4 0 2 -3 12 -7 22 -4 11
-3 15 4 11 15 -10 26 23 12 39 -6 7 -7 19 -3 25 4 7 -1 18 -12 26 -18 13 -18
14 3 19 24 6 28 40 6 48 -16 6 -17 33 -2 38 7 2 7 12 1 28 -11 29 -10 109 2
128 4 7 2 12 -6 12 -9 0 -9 3 2 10 13 8 12 10 -2 10 -10 0 -18 5 -18 11 0 5 4
8 9 4 5 -3 12 -1 16 4 3 5 -3 14 -12 20 -14 8 -15 10 -3 11 13 0 13 2 1 9 -12
8 -12 12 -2 24 8 10 8 17 2 22 -7 4 -10 112 -8 315 1 170 -1 303 -5 296 -4 -7
-10 -172 -14 -367 -4 -195 -9 -356 -12 -359 -7 -7 7 751 18 925 5 83 16 310
25 505 17 390 20 434 38 448 19 15 479 183 485 177 3 -3 0 -5 -6 -5 -6 0 -9
-7 -6 -15 7 -18 18 -19 36 -2 7 7 29 20 48 28 19 9 46 21 60 27 19 8 21 11 7
11 -10 1 -41 -9 -68 -20 -27 -12 -52 -20 -54 -17 -9 9 135 58 152 51 10 -3 14
-2 10 2 -4 5 12 17 35 26 51 21 72 23 62 7 -4 -7 -3 -8 5 -4 6 4 9 11 7 15 -8
12 360 144 375 136 7 -5 10 -4 6 2 -4 5 74 40 181 81 103 39 196 74 206 78 14
5 17 4 12 -4 -10 -16 4 -14 34 4 23 14 23 14 3 9 -13 -4 -23 -4 -23 -2 0 10
150 58 161 51 7 -4 9 -3 5 4 -6 10 63 37 72 27 2 -2 -11 -8 -29 -13 -33 -10
-33 -10 14 -9 26 1 47 5 47 9 0 4 8 8 18 8 14 0 15 2 2 10 -10 6 93 10 299 10
l315 0 135 -64z m404 -1863 c-7 -3 -13 -9 -13 -14 0 -6 6 -7 13 -3 7 5 7 2 -2
-10 -8 -9 -10 -16 -5 -15 24 4 24 -3 0 -22 -14 -11 -24 -24 -22 -28 3 -4 -1
-8 -9 -8 -8 0 -15 7 -15 15 0 9 3 13 6 9 13 -12 30 18 26 46 -4 27 15 54 28
40 3 -3 -1 -8 -7 -10z m-5756 -25 c-3 -8 -6 -5 -6 6 -1 11 2 17 5 13 3 -3 4
-12 1 -19z m6105 4 c-7 -2 -10 -8 -6 -13 3 -5 0 -9 -5 -9 -13 0 -13 3 -5 24 3
9 11 13 17 9 8 -5 7 -8 -1 -11z m145 -31 c0 -10 -7 -18 -14 -18 -9 0 -10 4 -2
13 6 7 7 19 3 25 -4 7 -3 9 4 5 6 -3 10 -15 9 -25z m-623 8 c-4 -8 1 -9 17 -5
23 7 23 6 5 -8 -14 -12 -23 -13 -33 -5 -13 12 -9 29 8 29 6 0 7 -5 3 -11z
m441 -17 c-7 -8 -45 10 -40 19 4 5 14 3 25 -3 11 -7 17 -14 15 -16z m-6058
-14 c-3 -7 -5 -2 -5 12 0 14 2 19 5 13 2 -7 2 -19 0 -25z m6197 16 c3 -8 2
-12 -4 -9 -6 3 -10 10 -10 16 0 14 7 11 14 -7z m-1230 -21 c3 -7 -1 -13 -8
-13 -8 0 -16 6 -19 13 -3 8 1 14 9 14 7 0 15 -6 18 -14z m533 10 c-4 -3 1 -15
10 -26 10 -11 12 -17 6 -13 -7 4 -13 2 -13 -3 0 -6 5 -11 12 -11 6 0 9 -2 6
-5 -12 -12 -36 7 -31 26 7 26 -3 24 -34 -8 l-26 -28 18 32 c10 18 22 30 26 27
4 -2 10 0 14 6 3 5 9 10 12 10 4 0 3 -3 0 -7z m428 -10 c-2 -10 -4 -19 -4 -21
-1 -2 -6 0 -11 3 -8 5 -7 11 1 21 15 18 18 18 14 -3z m439 8 c3 -4 -1 -17 -10
-27 -14 -18 -15 -18 -5 3 8 16 8 23 -2 26 -9 4 -9 6 0 6 6 1 14 -3 17 -8z
m-690 -10 c4 -5 -3 -7 -14 -4 -23 6 -26 13 -6 13 8 0 17 -4 20 -9z m-5667 -43
c-3 -8 -6 -5 -6 6 -1 11 2 17 5 13 3 -3 4 -12 1 -19z m1843 -3 c0 -14 -4 -25
-8 -25 -5 0 -14 -10 -20 -22 -15 -31 -73 -158 -112 -243 -17 -38 -76 -160
-129 -270 -54 -110 -104 -215 -111 -232 -7 -18 -17 -30 -23 -26 -6 3 -7 1 -3
-5 7 -11 -60 -159 -86 -189 -6 -7 -8 -13 -5 -13 3 0 -12 -32 -34 -71 -21 -40
-39 -76 -39 -81 0 -10 -17 -47 -110 -241 -34 -71 -77 -165 -96 -209 -19 -44
-43 -91 -54 -105 l-20 -26 0 28 c0 29 39 120 222 520 176 384 290 615 299 609
5 -3 6 1 4 8 -8 21 291 618 310 618 9 0 15 -9 15 -25z m3262 3 c-7 -7 -12 -8
-12 -2 0 14 12 26 19 19 2 -3 -1 -11 -7 -17z m105 0 c-3 -8 -6 -5 -6 6 -1 11
2 17 5 13 3 -3 4 -12 1 -19z m-237 2 c0 -5 -4 -10 -10 -10 -5 0 -10 5 -10 10
0 6 5 10 10 10 6 0 10 -4 10 -10z m280 0 c0 -5 -2 -10 -4 -10 -3 0 -8 5 -11
10 -3 6 -1 10 4 10 6 0 11 -4 11 -10z m-614 -32 c5 4 1 -3 -10 -15 -10 -12
-15 -27 -11 -35 6 -10 5 -10 -5 -1 -11 10 -11 15 0 28 11 14 7 19 -13 16 -5
-1 -6 3 -2 9 5 8 11 8 19 1 7 -6 17 -7 22 -3z m-4629 -20 c-3 -8 -6 -5 -6 6
-1 11 2 17 5 13 3 -3 4 -12 1 -19z m10 -60 c-3 -7 -5 -2 -5 12 0 14 2 19 5 13
2 -7 2 -19 0 -25z m10 -40 c-3 -8 -6 -5 -6 6 -1 11 2 17 5 13 3 -3 4 -12 1
-19z m2631 -404 c-3 -14 -5 -12 -10 9 -3 19 -2 25 4 19 6 -6 8 -18 6 -28z
m-11 -316 c-3 -7 -5 -2 -5 12 0 14 2 19 5 13 2 -7 2 -19 0 -25z m0 -125 c-3
-10 -5 -4 -5 12 0 17 2 24 5 18 2 -7 2 -21 0 -30z m0 -205 c-2 -35 -3 -7 -3
62 0 69 1 97 3 63 2 -35 2 -91 0 -125z m60 167 c0 -8 -4 -15 -9 -15 -10 0 -11
14 -1 23 9 10 10 9 10 -8z m-50 -317 c-3 -7 -5 -2 -5 12 0 14 2 19 5 13 2 -7
2 -19 0 -25z m0 -50 c-3 -7 -5 -2 -5 12 0 14 2 19 5 13 2 -7 2 -19 0 -25z
m-994 -133 c-3 -9 -8 -14 -10 -11 -3 3 -2 9 2 15 9 16 15 13 8 -4z m46 -8 c0
-9 -2 -8 -6 1 -2 6 -10 9 -15 6 -7 -4 -8 -2 -4 5 9 13 26 5 25 -12z m-234 3
c3 -5 1 -10 -4 -10 -6 0 -11 5 -11 10 0 6 2 10 4 10 3 0 8 -4 11 -10z m-172
-20 c-3 -12 -8 -19 -11 -16 -5 6 5 36 12 36 2 0 2 -9 -1 -20z m87 0 c-8 -5
-19 -10 -25 -10 -5 0 -3 5 5 10 8 5 20 10 25 10 6 0 3 -5 -5 -10z m221 1 c7
11 9 10 9 -4 0 -20 -22 -19 -26 1 -2 9 -1 9 3 1 4 -8 8 -7 14 2z m89 -10 c0
-4 -6 -8 -14 -8 -8 0 -12 6 -9 14 5 13 23 9 23 -6z m-237 -3 c-4 -7 -7 -22 -8
-32 0 -11 -7 -21 -15 -23 -9 -3 -11 -1 -4 4 6 4 10 20 9 36 -1 17 3 27 12 27
9 0 11 -5 6 -12z m39 -28 c2 -8 10 -21 18 -28 8 -8 9 -11 2 -7 -6 3 -15 -1
-18 -10 -5 -11 -10 -13 -19 -5 -19 16 -15 49 5 43 12 -4 11 -2 -2 10 -10 8
-15 17 -11 21 8 8 20 -4 25 -24z m255 24 c-3 -3 -12 -4 -19 -1 -8 3 -5 6 6 6
11 1 17 -2 13 -5z m-481 -21 c-1 -12 6 -18 20 -17 16 0 20 -4 16 -20 -4 -21
-4 -21 11 -1 12 16 13 23 4 35 -10 13 -10 13 4 3 12 -10 20 -9 37 3 12 8 32
13 45 11 19 -4 18 -4 -5 -6 -16 0 -28 -5 -28 -10 0 -5 -9 -13 -21 -16 -15 -5
-18 -10 -10 -18 7 -7 17 -4 32 14 13 14 20 17 16 8 -3 -9 -1 -21 5 -27 13 -13
1 -35 -14 -26 -6 4 -8 2 -5 -3 4 -6 -2 -18 -12 -27 -13 -12 -21 -14 -26 -6 -3
6 -1 9 6 8 8 -2 14 7 15 20 1 15 -4 22 -17 22 -10 0 -21 -4 -24 -10 -4 -6 1
-7 12 -3 16 6 16 5 4 -10 -12 -15 -15 -16 -25 -2 -10 13 -14 12 -30 -10 -10
-14 -23 -25 -29 -25 -5 0 -3 8 4 17 12 15 12 16 -4 10 -12 -4 -20 -1 -24 11
-7 18 -31 36 -48 37 -5 0 -10 7 -11 15 0 8 1 10 3 3 3 -8 11 -9 29 -3 16 7 23
6 21 -2 -1 -6 4 -13 12 -16 9 -3 11 0 6 7 -4 7 1 21 11 32 21 23 22 23 20 2z
m288 4 c-3 -8 2 -20 11 -27 12 -10 15 -10 15 3 0 9 4 18 9 21 7 5 8 -10 2 -48
0 -5 -8 -3 -16 4 -12 10 -16 9 -21 -4 -6 -16 -24 -13 -24 5 0 6 4 8 9 4 5 -3
12 -1 16 5 3 5 -1 10 -10 10 -13 0 -14 4 -5 20 12 22 22 27 14 7z m89 -2 c-6
-17 17 -17 29 0 4 5 15 2 27 -9 14 -13 24 -15 38 -8 16 9 19 7 20 -11 2 -17 0
-19 -7 -7 -6 9 -13 11 -17 5 -10 -13 -36 -19 -29 -6 3 5 -1 12 -10 15 -22 9
-24 8 -24 -9 0 -8 -4 -15 -10 -15 -5 0 -6 7 -3 17 4 10 2 14 -5 9 -13 -8 -26
10 -17 24 10 15 15 12 8 -5z m210 -8 c-5 -8 -8 -7 -11 1 -2 7 -9 9 -14 6 -7
-4 -8 -2 -4 4 4 6 13 9 21 6 8 -4 12 -11 8 -17z m-440 -12 c-3 -9 -8 -14 -10
-11 -3 3 -2 9 2 15 9 16 15 13 8 -4z m-243 -37 c0 -5 -4 -7 -9 -3 -5 3 -12 1
-16 -5 -9 -14 -22 -12 -28 4 -4 10 -1 13 9 9 9 -3 14 1 14 12 0 14 3 15 15 5
8 -7 15 -17 15 -22z m465 22 c3 -5 1 -10 -4 -10 -6 0 -11 5 -11 10 0 6 2 10 4
10 3 0 8 -4 11 -10z m-185 -14 c0 -11 -19 -15 -25 -6 -3 5 1 10 9 10 9 0 16
-2 16 -4z m-242 -32 c3 -18 2 -18 -14 1 -12 14 -15 15 -11 4 3 -9 0 -22 -6
-28 -9 -9 -7 -11 8 -6 19 6 19 6 2 -5 -11 -7 -23 -8 -27 -4 -14 15 -16 49 -3
49 6 0 15 3 19 8 12 12 29 2 32 -19z m-68 -26 c0 -10 -7 -18 -15 -18 -8 0 -12
6 -9 14 3 8 1 17 -5 21 -6 3 -11 10 -11 16 0 5 9 4 20 -3 11 -7 20 -21 20 -30z
m300 19 c0 -15 -35 -16 -47 -2 -5 4 -3 6 2 2 6 -3 17 -2 25 4 19 11 20 11 20
-4z m-350 -33 c0 -2 -7 -4 -15 -4 -8 0 -15 4 -15 10 0 5 7 7 15 4 8 -4 15 -8
15 -10z"/>
<path d="M9625 8264 c10 -17 26 -41 37 -55 l20 -24 -17 31 c-10 17 -26 41 -37
55 l-20 24 17 -31z"/>
<path d="M3100 7310 c0 -5 6 -9 13 -7 6 1 11 -4 10 -10 -2 -7 4 -13 14 -13 14
0 14 2 -2 20 -20 22 -35 26 -35 10z"/>
<path d="M3190 7243 c8 -3 26 -17 39 -30 14 -12 30 -23 36 -23 5 0 -6 14 -25
30 -19 16 -42 29 -50 29 -13 -1 -13 -1 0 -6z"/>
<path d="M3280 7181 c0 -5 5 -13 10 -16 6 -3 10 -2 10 4 0 5 -4 13 -10 16 -5
3 -10 2 -10 -4z"/>
<path d="M3320 7150 c0 -5 5 -10 11 -10 5 0 7 5 4 10 -3 6 -8 10 -11 10 -2 0
-4 -4 -4 -10z"/>
<path d="M3376 7108 c16 -13 34 -28 39 -34 6 -6 19 -14 30 -18 23 -8 18 -3
-41 42 -23 18 -45 32 -49 32 -4 0 5 -10 21 -22z"/>
<path d="M3610 6931 c0 -5 7 -12 16 -15 14 -5 15 -4 4 9 -14 17 -20 19 -20 6z"/>
<path d="M7218 7893 c7 -3 16 -2 19 1 4 3 -2 6 -13 5 -11 0 -14 -3 -6 -6z"/>
<path d="M6980 7806 c-36 -13 -81 -30 -100 -39 -34 -16 -34 -16 -5 -10 17 3
35 10 41 14 6 5 21 11 35 13 13 3 26 5 29 6 3 2 8 2 13 1 4 0 7 4 7 9 0 6 9
10 19 10 11 0 23 5 26 10 8 13 11 13 -65 -14z"/>
<path d="M6803 7740 c-13 -5 -23 -11 -23 -14 0 -7 40 6 46 15 6 10 6 10 -23
-1z"/>
<path d="M6576 7656 c-40 -16 -53 -25 -42 -29 9 -4 16 -2 16 3 0 6 6 10 14 10
8 0 33 9 57 20 60 27 28 24 -45 -4z"/>
<path d="M6482 7621 c-11 -7 -11 -9 1 -14 16 -6 27 0 27 15 0 10 -11 10 -28
-1z"/>
<path d="M6305 7555 c-25 -12 -26 -14 -5 -9 14 4 29 10 35 15 12 12 5 11 -30
-6z"/>
<path d="M6009 7440 l-24 -20 30 6 c37 8 45 13 45 25 0 16 -27 10 -51 -11z"/>
<path d="M5925 7410 c-8 -13 5 -13 25 0 13 8 13 10 -2 10 -9 0 -20 -4 -23 -10z"/>
<path d="M5543 6325 c0 -22 2 -30 4 -17 2 12 2 30 0 40 -3 9 -5 -1 -4 -23z"/>
<path d="M5543 6225 c0 -33 2 -45 4 -27 2 18 2 45 0 60 -2 15 -4 0 -4 -33z"/>
<path d="M9046 6173 c-6 -14 -5 -15 5 -6 7 7 10 15 7 18 -3 3 -9 -2 -12 -12z"/>
<path d="M8820 6166 c0 -4 5 -16 11 -27 7 -15 7 -24 -2 -35 -6 -8 -8 -14 -3
-14 5 0 17 12 27 25 16 23 16 24 1 18 -11 -4 -15 -2 -11 4 4 6 0 16 -8 23 -8
7 -15 9 -15 6z"/>
<path d="M8595 6150 c3 -5 11 -10 16 -10 6 0 7 5 4 10 -3 6 -11 10 -16 10 -6
0 -7 -4 -4 -10z"/>
<path d="M9016 6143 c-6 -14 -5 -15 5 -6 7 7 10 15 7 18 -3 3 -9 -2 -12 -12z"/>
<path d="M8700 6146 c0 -2 7 -7 16 -10 8 -3 12 -2 9 4 -6 10 -25 14 -25 6z"/>
<path d="M8937 6139 c7 -7 15 -10 18 -7 3 3 -2 9 -12 12 -14 6 -15 5 -6 -5z"/>
<path d="M9300 6130 c6 -11 13 -20 16 -20 2 0 0 9 -6 20 -6 11 -13 20 -16 20
-2 0 0 -9 6 -20z"/>
<path d="M8335 6130 c-4 -6 -11 -8 -16 -5 -16 10 -10 -2 9 -16 9 -7 14 -9 10
-5 -4 5 -3 15 3 23 6 7 9 13 6 13 -3 0 -9 -5 -12 -10z"/>
<path d="M8635 6129 c-11 -16 -1 -19 13 -3 7 8 8 14 3 14 -5 0 -13 -5 -16 -11z"/>
<path d="M9080 6120 c0 -6 4 -10 9 -10 5 0 13 -9 16 -21 9 -27 16 -20 9 8 -6
22 -34 41 -34 23z"/>
<path d="M8536 6104 c-5 -14 -4 -15 9 -4 17 14 19 20 6 20 -5 0 -12 -7 -15
-16z"/>
<path d="M8735 6113 c-28 -7 -39 -19 -24 -28 8 -5 10 -4 5 3 -5 8 1 12 18 12
14 0 28 5 31 10 6 10 3 11 -30 3z"/>
<path d="M8783 6113 c8 -12 -20 -27 -42 -24 -7 1 -10 -2 -6 -9 4 -6 13 -9 20
-6 8 3 16 1 19 -5 2 -5 3 -4 2 3 -2 7 4 18 12 24 12 9 12 13 2 19 -8 5 -11 4
-7 -2z"/>
<path d="M8945 6110 c3 -5 11 -10 16 -10 6 0 7 5 4 10 -3 6 -11 10 -16 10 -6
0 -7 -4 -4 -10z"/>
<path d="M9000 6112 c0 -4 12 -9 28 -10 21 -1 23 0 12 8 -18 12 -40 13 -40 2z"/>
<path d="M8503 6065 c0 -19 3 -35 7 -35 10 0 10 59 1 64 -4 3 -8 -10 -8 -29z"/>
<path d="M9217 6081 c-4 -17 -3 -21 5 -13 5 5 8 16 6 23 -3 8 -7 3 -11 -10z"/>
<path d="M9337 6069 c10 -17 24 -36 32 -42 8 -7 2 7 -14 31 -32 49 -45 57 -18
11z"/>
<path d="M8261 6073 c7 -12 15 -20 18 -17 3 2 -3 12 -13 22 -17 16 -18 16 -5
-5z"/>
<path d="M8320 6083 c8 -3 19 -11 23 -17 6 -7 7 -6 4 4 -2 8 -12 16 -23 17
-13 2 -15 1 -4 -4z"/>
<path d="M9247 6083 c-3 -5 4 -15 16 -23 21 -12 21 -12 7 6 -8 10 -15 20 -16
22 -1 2 -4 -1 -7 -5z"/>
<path d="M8106 6071 c-3 -5 1 -14 9 -21 10 -9 15 -9 15 -1 0 6 -5 11 -11 11
-5 0 -7 5 -4 10 3 6 4 10 1 10 -3 0 -7 -4 -10 -9z"/>
<path d="M8406 6065 c-5 -13 -10 -14 -28 -4 -13 6 -20 8 -15 4 4 -5 -1 -18
-10 -29 -10 -12 -11 -16 -4 -9 10 9 20 9 34 2 12 -7 17 -7 13 -1 -8 14 21 35
36 26 10 -6 9 -3 -1 9 -17 21 -17 21 -25 2z"/>
<path d="M8018 6063 c7 -3 16 -2 19 1 4 3 -2 6 -13 5 -11 0 -14 -3 -6 -6z"/>
<path d="M7869 6033 c-13 -16 -12 -17 4 -4 9 7 17 15 17 17 0 8 -8 3 -21 -13z"/>
<path d="M8017 6038 c2 -5 11 -8 19 -8 8 0 14 -4 14 -10 0 -5 4 -10 8 -10 4 0
8 8 8 18 0 14 -7 19 -27 18 -15 -1 -25 -4 -22 -8z"/>
<path d="M8176 6041 c-4 -6 -14 -7 -24 -4 -9 3 -14 3 -10 -1 3 -4 12 -8 20
-10 7 -1 18 -5 25 -9 7 -4 10 -1 9 8 -3 20 -13 28 -20 16z"/>
<path d="M8210 6046 c0 -2 7 -9 15 -16 9 -7 15 -8 15 -2 0 5 -7 12 -15 16 -8
3 -15 4 -15 2z"/>
<path d="M8274 6025 c-9 -21 -2 -26 13 -10 8 9 9 16 3 20 -6 3 -13 -1 -16 -10z"/>
<path d="M8418 6033 c7 -3 16 -2 19 1 4 3 -2 6 -13 5 -11 0 -14 -3 -6 -6z"/>
<path d="M9223 6023 c0 -8 7 -11 14 -8 8 3 19 5 24 5 6 0 8 4 4 9 -8 14 -42 9
-42 -6z"/>
<path d="M8637 6010 c-3 -11 0 -23 5 -27 6 -3 8 -1 4 5 -3 6 -2 13 4 17 12 8
13 25 1 25 -5 0 -11 -9 -14 -20z"/>
<path d="M7970 6001 c6 -12 15 -21 20 -21 18 0 11 19 -11 30 -19 11 -20 10 -9
-9z"/>
<path d="M7383 5975 c0 -8 4 -12 9 -9 5 3 6 10 3 15 -9 13 -12 11 -12 -6z"/>
<path d="M7545 5981 c3 -2 -5 -12 -17 -22 -11 -11 -16 -19 -10 -19 7 0 15 0
20 0 4 0 7 5 7 11 0 6 8 17 19 24 18 13 18 14 -2 12 -12 0 -19 -3 -17 -6z"/>
<path d="M8160 5974 c0 -8 5 -12 10 -9 6 4 8 11 5 16 -9 14 -15 11 -15 -7z"/>
<path d="M7610 5966 c0 -2 7 -7 16 -10 8 -3 12 -2 9 4 -6 10 -25 14 -25 6z"/>
<path d="M7587 5934 c6 -18 19 -18 26 -1 3 7 -3 13 -14 14 -12 1 -16 -3 -12
-13z"/>
<path d="M6986 5822 c-3 -5 1 -9 9 -9 8 0 15 4 15 9 0 4 -4 8 -9 8 -6 0 -12
-4 -15 -8z"/>
<path d="M5611 4751 c-8 -5 -9 -11 -3 -15 5 -3 12 1 16 9 6 17 6 18 -13 6z"/>
<path d="M4350 4299 c0 -5 5 -7 10 -4 6 3 10 8 10 11 0 2 -4 4 -10 4 -5 0 -10
-5 -10 -11z"/>
<path d="M4155 4290 c-3 -5 -1 -10 4 -10 6 0 11 5 11 10 0 6 -2 10 -4 10 -3 0
-8 -4 -11 -10z"/>
<path d="M4122 4281 c-11 -6 -9 -9 6 -13 15 -4 19 -2 15 8 -6 16 -4 16 -21 5z"/>
</g>
</svg>
