<?xml version="1.0" standalone="no"?>
<!DOCTYPE svg PUBLIC "-//W3C//DTD SVG 20010904//EN"
 "http://www.w3.org/TR/2001/REC-SVG-20010904/DTD/svg10.dtd">
<svg version="1.0" xmlns="http://www.w3.org/2000/svg"
 width="500.000000pt" height="500.000000pt" viewBox="0 0 500.000000 500.000000"
 preserveAspectRatio="xMidYMid meet">

<g transform="translate(0.000000,500.000000) scale(0.100000,-0.100000)"
fill="#000000" stroke="none">
<path d="M550 4560 c-352 -60 -414 -72 -437 -81 -47 -18 -48 -42 -3 -225 22
-93 43 -180 46 -194 16 -72 52 -67 215 30 174 104 221 140 292 225 71 85 96
131 104 194 4 36 1 51 -12 64 -20 20 -3 21 -205 -13z"/>
<path d="M2820 4203 c-12 -16 -61 -70 -108 -122 -48 -51 -103 -113 -122 -137
-19 -24 -66 -79 -105 -122 -108 -122 -218 -254 -244 -289 -20 -30 -21 -37 -10
-70 39 -121 49 -134 96 -117 36 12 52 47 60 131 7 73 12 82 167 278 31 39 108
141 172 228 98 133 117 165 122 203 2 24 2 44 -1 44 -3 0 -15 -12 -27 -27z"/>
<path d="M3560 3935 c-5 -33 1 -159 8 -167 4 -4 6 23 4 60 -4 92 -8 132 -12
107z"/>
<path d="M1359 3812 c-114 -60 -405 -272 -414 -302 -9 -29 0 -38 68 -69 34
-16 130 -61 212 -101 188 -91 222 -102 271 -89 49 14 334 207 347 236 16 36
-4 66 -75 114 -35 24 -120 84 -189 135 -70 51 -136 95 -146 98 -13 4 -40 -4
-74 -22z"/>
<path d="M3519 3758 c-8 -18 -14 -35 -14 -38 -1 -3 -10 -23 -22 -45 -31 -59
-56 -152 -50 -188 2 -18 1 -39 -3 -47 -5 -9 -2 -45 5 -80 19 -87 18 -91 -8
-48 -14 22 -27 34 -35 30 -6 -4 -27 -72 -47 -150 -20 -78 -47 -166 -61 -195
l-25 -52 6 45 c7 56 -1 47 -26 -27 -14 -41 -18 -47 -14 -22 10 68 4 72 -105
54 -48 -8 -153 26 -213 69 -27 19 -63 38 -80 41 -18 3 -42 11 -54 17 -17 8
-34 4 -90 -24 -127 -65 -168 -89 -165 -100 1 -5 -1 -7 -6 -4 -7 4 -70 -39
-112 -77 -97 -89 -132 -117 -141 -112 -5 4 -8 1 -7 -6 2 -7 -2 -13 -9 -14 -6
0 -15 -4 -20 -9 -4 -5 -3 -7 3 -3 6 3 18 -14 27 -41 l18 -46 -24 22 -24 23
-44 -34 c-24 -19 -43 -38 -42 -43 4 -16 26 -79 35 -100 15 -33 6 -56 -31 -78
-52 -30 -133 -27 -198 7 -29 15 -56 27 -60 27 -5 0 -24 -10 -43 -22 -62 -39
-67 -28 -10 22 30 27 54 54 52 60 -1 5 1 9 5 8 5 -1 21 10 37 25 18 16 23 27
15 27 -8 1 13 12 46 26 68 28 82 39 64 49 -8 6 -10 4 -4 -5 6 -9 1 -10 -16 -5
-19 5 -21 4 -9 -5 12 -9 9 -10 -13 -5 -20 4 -27 2 -22 -6 5 -8 1 -9 -15 -4
-15 5 -20 4 -16 -4 5 -7 1 -9 -8 -5 -9 3 -16 1 -16 -5 0 -6 -7 -8 -15 -5 -8 4
-15 2 -15 -2 0 -5 -12 -10 -27 -11 -15 0 -29 -6 -31 -12 -2 -5 -10 -7 -18 -4
-8 3 -14 -1 -14 -8 0 -7 -3 -10 -6 -6 -4 3 -18 0 -33 -7 -14 -7 -32 -11 -40
-8 -9 3 -11 0 -6 -8 6 -10 4 -12 -8 -7 -10 4 -17 2 -17 -4 0 -6 -7 -9 -15 -5
-8 3 -15 1 -15 -5 0 -6 -7 -8 -16 -5 -10 4 -13 2 -8 -6 5 -7 0 -9 -14 -6 -12
4 -20 3 -18 -1 3 -4 -40 -23 -95 -42 -86 -30 -96 -35 -74 -42 14 -5 22 -13 19
-19 -4 -7 -2 -8 5 -4 6 4 46 -4 89 -17 42 -14 90 -28 105 -32 21 -4 27 -10 23
-22 -5 -13 -4 -14 8 -4 11 9 28 9 75 0 33 -7 58 -16 55 -21 -3 -4 2 -5 11 -1
10 3 20 2 24 -4 3 -5 47 -19 96 -31 58 -14 73 -20 41 -16 -45 5 -48 4 -33 -10
17 -18 12 -56 -10 -69 -7 -5 -11 -12 -8 -17 3 -5 1 -11 -4 -14 -4 -3 -8 3 -7
14 1 14 -17 31 -61 58 -35 22 -60 42 -55 46 4 4 0 6 -8 4 -9 -2 -14 4 -14 15
1 9 -5 17 -13 17 -8 0 -11 -5 -8 -13 4 -6 0 -4 -8 5 -13 16 -61 22 -51 6 3 -4
11 -5 20 -1 9 3 14 0 12 -8 -2 -7 3 -14 10 -15 6 -1 17 -2 23 -3 5 0 7 -6 4
-11 -4 -6 -3 -10 2 -9 14 3 43 -13 38 -21 -3 -4 3 -7 13 -6 9 0 16 -5 14 -12
-1 -8 2 -11 8 -7 13 8 52 -19 42 -30 -4 -5 -1 -5 6 -1 11 6 17 -5 13 -27 -1
-4 11 -12 26 -18 15 -6 31 -15 34 -21 4 -7 15 -13 23 -14 9 -1 13 2 10 8 -4 6
2 5 15 -1 23 -13 27 -26 9 -37 -8 -5 -9 -2 -5 10 4 11 3 15 -4 11 -6 -4 -8
-13 -5 -20 3 -8 0 -16 -7 -19 -7 -2 -4 -5 5 -5 10 -1 22 8 28 20 11 20 12 20
27 2 8 -10 12 -12 8 -3 -5 12 -4 12 7 -1 8 -9 24 -14 39 -12 19 2 51 -11 105
-45 95 -58 201 -109 269 -129 28 -8 60 -21 72 -29 18 -11 170 -54 194 -54 3 0
12 18 19 40 10 30 11 52 3 85 -11 49 0 148 17 153 5 2 8 8 5 12 -3 5 -1 11 4
14 16 10 81 -75 83 -108 2 -58 -4 -91 -24 -118 -10 -16 -16 -28 -12 -28 3 0 1
-7 -6 -15 -10 -12 -9 -15 6 -15 14 0 15 -3 6 -8 -9 -6 0 -13 27 -22 35 -11 46
-11 86 4 25 10 62 19 83 20 47 3 87 22 101 50 10 17 7 40 -14 116 -14 52 -25
101 -25 109 0 8 33 -17 73 -55 89 -87 152 -132 145 -106 -1 4 14 59 34 122 20
63 46 150 57 193 12 43 29 89 38 103 15 23 15 31 -2 110 l-18 85 -22 -21 c-12
-11 -25 -17 -30 -13 -4 5 -5 2 -1 -4 4 -8 -25 -50 -77 -110 -46 -54 -110 -135
-142 -180 -55 -78 -83 -102 -104 -89 -4 3 -39 8 -77 11 -85 7 -226 24 -230 27
-1 2 14 68 35 148 35 138 74 231 114 275 28 30 44 65 52 115 7 48 29 90 46 90
5 0 15 -13 20 -30 13 -37 22 -38 37 -5 6 14 16 25 22 25 21 0 46 -74 45 -130
l-2 -55 19 40 c10 22 16 31 13 20 -7 -32 -12 -71 -8 -59 2 7 18 14 35 18 64
13 94 7 139 -28 24 -18 47 -33 51 -32 3 1 10 -3 15 -8 4 -5 3 -6 -3 -3 -17 10
-39 -19 -23 -29 8 -4 9 -3 5 4 -9 15 6 16 21 1 25 -25 41 37 58 227 9 104 22
203 30 219 36 85 35 83 29 50 -5 -24 -3 -27 6 -15 9 12 10 11 5 -7 -8 -31 5
-79 17 -61 6 8 7 1 3 -22 -5 -27 -4 -32 5 -20 9 12 10 9 5 -13 -4 -21 -3 -27
6 -21 8 5 10 0 6 -17 -3 -13 -2 -31 4 -39 9 -13 10 -13 8 0 -1 8 -1 89 0 179
1 147 3 163 16 145 10 -13 15 -50 17 -119 2 -89 2 -92 6 -30 6 114 -8 291 -25
312 -13 16 -14 15 -9 -17 2 -19 1 -44 -4 -55 -6 -13 -9 10 -10 70 -1 92 -24
317 -34 334 -3 5 -1 23 5 40 12 33 4 101 -10 101 -5 0 -15 -15 -22 -32z m-18
-641 c-10 -9 -11 -8 -5 6 3 10 9 15 12 12 3 -3 0 -11 -7 -18z m10 -40 c-10 -9
-11 -8 -5 6 3 10 9 15 12 12 3 -3 0 -11 -7 -18z m-1606 -457 c-11 -5 -27 -9
-35 -9 -9 0 -8 4 5 9 11 5 27 9 35 9 9 0 8 -4 -5 -9z m-160 -200 c-10 -11 -22
-20 -28 -20 -5 0 1 9 14 20 31 25 37 25 14 0z m92 -40 c30 -23 30 -23 -37 -9
-27 6 -50 15 -50 20 0 17 62 9 87 -11z m240 -96 c-3 -3 -12 -4 -19 -1 -8 3 -5
6 6 6 11 1 17 -2 13 -5z m50 -10 c-3 -3 -12 -4 -19 -1 -8 3 -5 6 6 6 11 1 17
-2 13 -5z m100 -20 c-3 -3 -12 -4 -19 -1 -8 3 -5 6 6 6 11 1 17 -2 13 -5z"/>
<path d="M3583 3620 c0 -25 2 -35 4 -22 2 12 2 32 0 45 -2 12 -4 2 -4 -23z"/>
<path d="M3593 3505 c0 -22 2 -30 4 -17 2 12 2 30 0 40 -3 9 -5 -1 -4 -23z"/>
<path d="M3741 3420 c-28 -34 -40 -40 -65 -38 -20 2 -33 10 -36 21 -5 17 -5
-619 0 -693 2 -29 5 -23 21 40 10 41 17 89 14 105 -4 23 -3 25 4 10 7 -17 9
-13 15 22 4 23 4 48 0 54 -5 8 -3 9 6 4 10 -6 12 -3 7 14 -3 13 1 44 9 69 7
26 14 61 14 77 0 24 2 27 11 15 8 -12 9 -11 4 7 -3 12 12 88 35 173 40 150 47
184 30 145 -7 -17 -9 -17 -9 -2 -1 28 -24 20 -60 -23z m-54 -522 c-3 -8 -6 -5
-6 6 -1 11 2 17 5 13 3 -3 4 -12 1 -19z"/>
<path d="M3603 3380 c0 -25 2 -35 4 -22 2 12 2 32 0 45 -2 12 -4 2 -4 -23z"/>
<path d="M2639 3163 l-34 -38 38 34 c34 33 42 41 34 41 -2 0 -19 -17 -38 -37z"/>
<path d="M3886 3115 c4 -8 10 -15 14 -15 5 0 6 -10 2 -22 -4 -15 -2 -19 7 -13
10 6 11 3 1 -15 -10 -18 -9 -21 1 -15 9 6 11 2 7 -13 -4 -12 -2 -22 4 -22 5 0
6 -4 3 -10 -3 -5 -1 -10 4 -10 6 0 11 -7 11 -16 0 -8 4 -13 9 -9 13 8 19 -26
9 -55 -8 -24 -7 -24 7 -5 11 13 30 20 62 22 26 2 50 8 54 14 5 8 8 8 10 0 6
-16 49 -1 49 16 0 13 3 13 15 3 11 -9 15 -9 15 -1 0 11 81 -26 131 -61 15 -9
39 -22 55 -28 l29 -10 -25 20 c-14 11 -60 38 -103 60 -42 23 -137 77 -209 121
-129 77 -173 95 -162 64z m124 -59 c0 -11 -19 -15 -25 -6 -3 5 1 10 9 10 9 0
16 -2 16 -4z"/>
<path d="M2579 3103 c-13 -16 -12 -17 4 -4 16 13 21 21 13 21 -2 0 -10 -8 -17
-17z"/>
<path d="M3604 2915 c0 -93 2 -133 3 -88 2 45 2 122 0 170 -1 48 -3 12 -3 -82z"/>
<path d="M3271 3054 c0 -11 3 -14 6 -6 3 7 2 16 -1 19 -3 4 -6 -2 -5 -13z"/>
<path d="M408 2985 c-20 -22 -7 -194 42 -535 36 -253 67 -333 166 -431 l55
-54 22 30 c12 16 56 70 97 118 41 49 99 119 128 155 75 93 103 122 121 122 8
0 46 -24 85 -54 114 -86 253 -175 253 -163 0 7 28 57 62 112 55 89 60 101 45
110 -40 23 -89 74 -79 83 6 5 36 19 67 32 47 18 56 25 49 39 -20 35 -224 283
-285 344 -43 44 -76 69 -102 76 -45 12 -716 27 -726 16z"/>
<path d="M4150 2928 c0 -11 28 -10 35 1 3 6 -4 9 -15 8 -11 -1 -20 -5 -20 -9z"/>
<path d="M2104 2705 c-18 -13 -18 -14 4 -8 12 3 25 9 28 14 8 14 -10 11 -32
-6z"/>
<path d="M3612 2700 c0 -14 2 -19 5 -12 2 6 2 18 0 25 -3 6 -5 1 -5 -13z"/>
<path d="M1809 2483 c-13 -16 -12 -17 4 -4 9 7 17 15 17 17 0 8 -8 3 -21 -13z"/>
<path d="M3088 2360 c-14 -50 -22 -88 -17 -83 12 12 51 152 47 165 -2 6 -15
-31 -30 -82z"/>
<path d="M4024 2421 c9 -13 140 -52 386 -114 281 -71 287 -72 311 -51 22 20
24 31 7 31 -7 0 -58 10 -113 23 -251 55 -563 120 -582 120 -8 0 -12 -4 -9 -9z"/>
<path d="M1550 2410 c8 -5 20 -10 25 -10 6 0 3 5 -5 10 -8 5 -19 10 -25 10 -5
0 -3 -5 5 -10z"/>
<path d="M3652 2375 c0 -16 2 -22 5 -12 2 9 2 23 0 30 -3 6 -5 -1 -5 -18z"/>
<path d="M1659 2314 c-12 -13 -29 -24 -37 -24 -9 0 -12 -3 -9 -6 4 -4 -20 -37
-53 -74 -33 -37 -60 -71 -60 -75 0 -4 13 -5 29 -3 17 2 28 1 25 -4 -3 -4 11
-8 30 -8 25 0 36 5 36 14 0 8 16 32 36 53 20 21 33 31 28 23 -7 -12 -4 -12 16
2 14 9 24 21 22 28 -1 6 17 0 40 -14 24 -13 68 -27 98 -31 l55 -6 -33 20 c-18
12 -36 21 -40 21 -4 1 -23 14 -42 30 -19 17 -40 30 -47 30 -7 0 -13 3 -13 8 0
4 -13 14 -29 24 -28 16 -30 15 -52 -8z"/>
<path d="M0 2090 c0 -132 3 -240 7 -240 9 0 206 134 298 203 119 89 102 116
-129 211 -87 37 -162 66 -167 66 -5 0 -9 -107 -9 -240z"/>
<path d="M1065 2293 c6 -24 104 -305 144 -412 17 -46 29 -87 25 -90 -4 -3 -9
0 -11 7 -3 6 -9 10 -14 6 -5 -3 -9 2 -9 10 0 9 -4 16 -10 16 -5 0 -10 5 -10
11 0 16 -30 42 -51 44 -11 1 -25 9 -32 19 -9 12 -29 18 -68 20 -30 1 -70 10
-89 19 -18 9 -39 17 -47 17 -7 0 -13 5 -13 10 0 6 -8 10 -17 10 -10 0 -33 9
-50 20 l-33 20 -35 -31 c-19 -17 -32 -35 -29 -40 3 -5 -3 -6 -12 -2 -13 5 -16
3 -11 -10 4 -10 2 -16 -6 -14 -7 1 -10 -5 -9 -13 2 -8 1 -12 -3 -8 -8 8 -85
-60 -85 -75 0 -5 -8 -15 -17 -22 -15 -11 -13 -14 22 -23 22 -6 72 -15 110 -21
247 -37 384 -59 573 -93 35 -7 75 -19 91 -29 27 -16 51 -72 51 -118 0 -11 5
-21 10 -21 6 0 10 -6 9 -12 -1 -7 -1 -26 0 -43 1 -24 3 -27 12 -15 9 12 10 11
6 -7 -3 -13 -1 -26 5 -29 5 -4 7 -21 4 -38 -4 -19 -3 -26 3 -17 9 13 16 -13
41 -142 6 -31 16 -55 21 -52 5 4 10 -11 10 -32 1 -38 1 -38 9 -8 5 21 8 5 8
-53 0 -46 -4 -80 -9 -76 -5 3 -6 -2 -3 -10 7 -17 39 -22 49 -7 3 5 25 128 50
273 61 365 85 500 90 508 2 4 6 40 9 81 4 66 3 76 -15 87 -16 10 -19 10 -19
-4 0 -9 5 -12 12 -8 7 4 8 3 4 -4 -5 -9 -13 -9 -26 -2 -16 8 -18 7 -14 -4 4
-10 -10 -23 -46 -41 l-52 -26 -42 43 c-55 57 -254 239 -336 308 -88 75 -90 77
-83 84 4 3 0 6 -8 6 -8 0 -19 10 -24 22 -13 27 -36 36 -30 11z m-292 -312 c3
-13 1 -18 -9 -14 -7 2 -10 11 -7 19 7 19 10 18 16 -5z m25 -12 c-3 -8 -7 -3
-11 10 -4 17 -3 21 5 13 5 -5 8 -16 6 -23z"/>
<path d="M1653 2113 c9 -2 25 -2 35 0 9 3 1 5 -18 5 -19 0 -27 -2 -17 -5z"/>
<path d="M3695 1955 c2 -93 8 -183 14 -200 14 -46 12 70 -4 235 l-14 135 4
-170z"/>
<path d="M1743 2103 c9 -2 23 -2 30 0 6 3 -1 5 -18 5 -16 0 -22 -2 -12 -5z"/>
<path d="M1823 2093 c9 -2 25 -2 35 0 9 3 1 5 -18 5 -19 0 -27 -2 -17 -5z"/>
<path d="M1918 2083 c12 -2 30 -2 40 0 9 3 -1 5 -23 4 -22 0 -30 -2 -17 -4z"/>
<path d="M1560 2019 c0 -5 5 -7 10 -4 6 3 13 -1 16 -9 3 -9 10 -13 15 -10 5 3
9 0 9 -5 0 -6 6 -11 13 -11 6 1 -1 12 -18 25 -33 27 -45 31 -45 14z"/>
<path d="M1672 1947 c10 -8 15 -17 11 -20 -3 -4 -1 -7 5 -7 23 0 20 18 -6 29
-23 10 -25 10 -10 -2z"/>
<path d="M4565 1669 c-28 -111 -54 -207 -60 -215 -8 -11 -88 -11 -482 -2
l-471 12 -89 -26 c-48 -15 -102 -29 -119 -33 -23 -4 -33 -14 -43 -41 -14 -39
-19 -29 97 -209 205 -318 354 -535 367 -535 23 0 279 265 490 508 44 50 87 92
95 92 8 0 25 -17 36 -38 53 -91 148 -213 171 -218 54 -14 54 -14 60 464 3 243
4 442 2 442 -3 0 -27 -91 -54 -201z"/>
<path d="M3354 1836 c-11 -8 -38 -48 -59 -90 -41 -82 -43 -108 -12 -241 11
-49 15 -56 21 -38 4 13 5 27 1 33 -3 5 -2 17 3 26 6 10 2 35 -10 71 -22 68
-22 64 0 57 9 -3 6 2 -8 10 -29 18 -14 21 27 5 15 -6 40 -15 55 -19 l28 -8 -5
55 c-3 30 -10 73 -15 94 -6 22 -8 44 -5 49 8 14 3 12 -21 -4z"/>
<path d="M3494 1757 c27 -31 51 -57 53 -57 7 0 -76 98 -90 107 -7 4 10 -19 37
-50z"/>
<path d="M3575 1791 c-3 -5 -2 -12 3 -15 5 -3 9 1 9 9 0 17 -3 19 -12 6z"/>
<path d="M3687 1715 c3 -22 7 -42 9 -44 8 -9 2 45 -6 64 -7 14 -8 8 -3 -20z"/>
<path d="M3723 1650 c0 -36 2 -50 4 -32 2 17 2 47 0 65 -2 17 -4 3 -4 -33z"/>
<path d="M3550 1686 c0 -2 8 -10 18 -17 15 -13 16 -12 3 4 -13 16 -21 21 -21
13z"/>
<path d="M3640 1683 c0 -7 5 -15 10 -18 6 -4 9 -13 8 -20 -2 -8 2 -14 7 -14 6
0 9 8 7 17 -4 21 -32 51 -32 35z"/>
<path d="M3412 1633 c1 -4 -13 -37 -31 -72 -18 -34 -31 -65 -29 -66 2 -2 19
28 39 66 20 38 32 72 27 75 -4 3 -7 2 -6 -3z"/>
<path d="M3620 1605 c13 -14 26 -25 28 -25 3 0 -5 11 -18 25 -13 14 -26 25
-28 25 -3 0 5 -11 18 -25z"/>
<path d="M3691 1574 c0 -11 3 -14 6 -6 3 7 2 16 -1 19 -3 4 -6 -2 -5 -13z"/>
<path d="M2225 1470 c22 -15 25 -20 12 -20 -15 0 -4 -27 59 -147 42 -82 88
-170 101 -197 13 -26 35 -65 49 -87 29 -46 29 -57 4 -89 -11 -14 -20 -35 -20
-47 0 -13 -4 -23 -9 -23 -4 0 -8 -12 -8 -27 0 -36 -45 -207 -55 -211 -4 -2 -8
-16 -8 -31 0 -27 -26 -117 -40 -136 -4 -5 -10 -28 -13 -50 -4 -22 -18 -76 -32
-119 -30 -94 -30 -88 -6 -84 18 3 480 452 616 599 65 70 135 179 135 210 0 12
-13 27 -30 37 -16 9 -29 19 -29 22 2 8 269 254 288 265 17 10 16 12 -8 30 -16
12 -21 13 -14 4 11 -14 -14 -42 -170 -191 -333 -320 -316 -306 -336 -270 -5
10 -11 84 -12 164 l-3 146 -57 28 c-55 26 -77 29 -71 11 1 -5 -2 -6 -7 -2 -6
3 -8 11 -5 18 6 16 -52 51 -68 41 -7 -5 -8 -3 -3 6 6 10 4 12 -8 7 -10 -4 -16
-2 -14 4 1 6 -21 24 -50 41 -45 25 -55 28 -75 17 -13 -6 -19 -8 -15 -3 4 4 -3
14 -15 22 -21 12 -17 12 30 -4 11 -4 8 2 -8 15 -14 11 -31 19 -38 16 -7 -3
-11 -1 -8 4 3 4 -12 18 -33 29 -48 27 -66 29 -26 2z m162 -110 c4 -12 3 -13
-5 -1 -6 8 -17 11 -27 8 -10 -4 -14 -3 -10 4 9 14 37 7 42 -11z m38 -18 c-3
-3 -11 0 -18 7 -9 10 -8 11 6 5 10 -3 15 -9 12 -12z"/>
<path d="M3110 1446 c0 -2 14 -14 30 -26 17 -12 30 -19 30 -16 0 2 -13 14 -30
26 -16 12 -30 19 -30 16z"/>
<path d="M1472 1290 c0 -14 2 -19 5 -12 2 6 2 18 0 25 -3 6 -5 1 -5 -13z"/>
<path d="M1482 1240 c0 -14 2 -19 5 -12 2 6 2 18 0 25 -3 6 -5 1 -5 -13z"/>
<path d="M1491 1184 c0 -11 3 -14 6 -6 3 7 2 16 -1 19 -3 4 -6 -2 -5 -13z"/>
<path d="M1501 1134 c0 -11 3 -14 6 -6 3 7 2 16 -1 19 -3 4 -6 -2 -5 -13z"/>
<path d="M1514 1105 c-3 -8 -2 -32 4 -52 9 -38 9 -38 8 14 -1 56 -3 62 -12 38z"/>
<path d="M2320 900 c0 -5 5 -10 10 -10 6 0 10 5 10 10 0 6 -4 10 -10 10 -5 0
-10 -4 -10 -10z"/>
<path d="M2402 890 c0 -14 2 -19 5 -12 2 6 2 18 0 25 -3 6 -5 1 -5 -13z"/>
<path d="M1890 854 c0 -6 7 -19 16 -30 14 -18 14 -18 3 6 -14 31 -19 36 -19
24z"/>
<path d="M1920 797 c0 -14 51 -109 56 -104 3 3 -8 29 -25 59 -17 29 -31 49
-31 45z"/>
<path d="M2115 415 c31 -60 64 -117 73 -125 14 -13 14 -12 0 11 -9 14 -38 66
-63 115 -26 49 -52 94 -58 99 -5 6 16 -39 48 -100z"/>
</g>
</svg>
