<?xml version="1.0" standalone="no"?>
<!DOCTYPE svg PUBLIC "-//W3C//DTD SVG 20010904//EN"
 "http://www.w3.org/TR/2001/REC-SVG-20010904/DTD/svg10.dtd">
<svg version="1.0" xmlns="http://www.w3.org/2000/svg"
 width="500.000000pt" height="500.000000pt" viewBox="0 0 500.000000 500.000000"
 preserveAspectRatio="xMidYMid meet">

<g transform="translate(0.000000,500.000000) scale(0.100000,-0.100000)"
fill="#000000" stroke="none">
<path d="M3715 3819 c-4 -6 -5 -12 -2 -15 2 -3 7 2 10 11 7 17 1 20 -8 4z"/>
<path d="M3696 3764 c-4 -14 -5 -28 -3 -31 3 -2 8 8 11 23 4 14 5 28 3 31 -3
2 -8 -8 -11 -23z"/>
<path d="M3298 3654 c-9 -9 -8 -305 1 -479 l7 -120 4 95 c7 129 -3 514 -12
504z"/>
<path d="M3608 3596 c-18 -14 -94 -137 -157 -256 -22 -41 -46 -84 -55 -95 -14
-19 -15 -18 -3 13 11 32 10 35 -23 65 l-35 31 -3 -78 c-2 -56 3 -101 19 -159
36 -138 69 -279 83 -352 l13 -70 11 40 c15 56 33 134 98 425 31 140 58 258 60
261 2 4 11 40 19 80 9 41 18 83 21 94 4 16 3 17 -5 5 -8 -11 -13 -12 -19 -3
-5 8 -11 8 -24 -1z"/>
<path d="M3243 3455 c0 -44 2 -61 4 -37 2 23 2 59 0 80 -2 20 -4 1 -4 -43z"/>
<path d="M3233 3260 c0 -47 2 -66 4 -42 2 23 2 61 0 85 -2 23 -4 4 -4 -43z"/>
<path d="M3248 3095 c-4 -104 -10 -228 -13 -275 l-5 -85 30 140 c16 77 27 142
24 144 -2 2 -4 -2 -4 -9 0 -7 -3 -10 -7 -6 -5 4 -10 69 -13 144 l-5 137 -7
-190z"/>
<path d="M2294 3102 c5 -9 3 -12 -5 -11 -41 8 -148 -75 -302 -233 -36 -38 -73
-68 -81 -68 -8 0 -83 -69 -167 -152 -83 -84 -157 -152 -163 -150 -6 2 -8 0 -3
-4 4 -4 -5 -16 -20 -26 -16 -10 -23 -18 -18 -18 11 -1 -166 -170 -177 -170 -5
0 -8 -7 -8 -15 0 -8 -4 -15 -10 -15 -17 0 -11 18 12 34 12 9 19 16 14 16 -5 0
-1 9 9 20 10 11 21 17 25 15 10 -6 32 19 25 28 -3 4 -2 5 2 2 3 -3 13 4 20 15
8 11 18 18 23 15 5 -3 11 -1 14 4 4 5 2 12 -3 15 -5 4 -12 2 -16 -4 -12 -19
-41 -10 -64 21 -16 22 -22 41 -20 72 3 46 24 66 69 67 14 0 32 5 40 10 12 8
10 10 -10 10 -20 0 -22 2 -10 10 11 7 0 10 -36 8 -29 -2 -50 -6 -48 -9 2 -3
-21 -13 -51 -23 -52 -16 -79 -35 -34 -23 12 3 18 2 13 -2 -12 -11 -194 -69
-188 -60 2 4 -17 -1 -43 -11 -26 -10 -47 -25 -49 -34 -3 -19 31 -40 48 -30 6
4 9 3 5 -2 -6 -11 114 -99 198 -144 33 -18 68 -38 79 -45 10 -8 25 -11 34 -8
11 5 13 3 7 -7 -5 -9 -4 -11 3 -6 19 11 241 -111 227 -126 -2 -2 42 -27 98
-56 99 -51 181 -96 286 -156 28 -16 48 -33 44 -39 -3 -6 -1 -7 5 -3 14 8 55
-12 47 -23 -2 -5 1 -8 8 -8 19 2 76 -11 262 -59 119 -31 171 -40 176 -32 5 8
42 2 129 -21 140 -37 162 -37 167 1 2 15 10 39 18 55 8 15 15 34 15 41 0 7 4
11 9 8 22 -14 -25 209 -51 241 -7 9 -7 13 1 13 6 0 18 -14 26 -30 9 -17 20
-28 24 -26 5 3 17 -4 27 -15 15 -17 15 -19 1 -14 -12 5 -15 1 -14 -13 0 -12 5
-18 9 -16 4 3 8 -1 8 -8 0 -8 3 -9 8 -3 12 17 38 11 78 -20 21 -17 41 -30 44
-30 3 0 19 -10 37 -23 40 -28 43 -28 43 6 0 15 7 37 15 48 8 12 19 48 24 82 5
34 14 69 19 79 5 10 20 59 32 108 24 97 39 135 40 100 0 -11 4 -26 9 -34 6 -9
8 0 7 28 -1 23 1 44 6 47 4 3 8 0 8 -7 0 -7 2 -10 6 -7 8 9 -88 328 -98 322
-4 -3 -7 32 -7 78 2 69 3 76 10 43 6 -32 6 -28 3 20 -2 33 -7 129 -10 213 -3
83 -9 152 -12 152 -4 0 -19 -11 -34 -24 -41 -39 -100 -66 -142 -66 -25 0 -66
-13 -113 -37 l-74 -36 -41 20 c-37 19 -44 20 -92 7 -58 -15 -97 -9 -143 24
-16 11 -50 29 -76 40 -27 12 -62 33 -79 47 -31 26 -96 36 -82 13 5 -8 0 -7
-11 2 -13 10 -16 11 -11 2z m536 -303 c0 -8 15 -9 45 -5 38 6 53 3 96 -20 67
-37 94 -72 115 -144 15 -54 23 -65 47 -61 4 1 -6 -26 -23 -59 -16 -33 -30 -66
-30 -73 0 -8 -13 -33 -30 -55 -16 -23 -30 -46 -30 -52 0 -5 -4 -10 -8 -10 -5
0 -15 -12 -23 -27 -8 -16 -17 -32 -22 -38 -56 -73 -120 -166 -129 -187 -7 -16
-19 -28 -28 -27 -10 0 -11 2 -2 6 31 12 3 20 -110 32 -152 16 -188 27 -188 58
0 24 40 96 60 108 6 3 8 10 5 15 -3 4 3 14 12 21 9 8 14 9 11 4 -4 -6 -3 -17
1 -24 9 -15 20 13 41 112 11 46 11 70 1 125 -25 136 -25 192 2 252 l25 55 13
-32 c7 -18 17 -33 20 -33 4 0 17 16 29 36 13 20 32 39 44 44 23 8 56 -4 56
-21z m-902 -104 c-3 -3 -9 2 -12 12 -6 14 -5 15 5 6 7 -7 10 -15 7 -18z m58
-93 c44 -110 82 -212 78 -212 -6 0 -45 80 -89 186 -26 61 -38 101 -30 98 7 -3
26 -36 41 -72z m777 -549 c-7 -2 -21 -2 -30 0 -10 3 -4 5 12 5 17 0 24 -2 18
-5z"/>
<path d="M3342 3050 c0 -14 2 -19 5 -12 2 6 2 18 0 25 -3 6 -5 1 -5 -13z"/>
<path d="M1670 2670 c-8 -5 -10 -10 -5 -10 6 0 17 5 25 10 8 5 11 10 5 10 -5
0 -17 -5 -25 -10z"/>
<path d="M1565 2631 c-22 -11 -35 -19 -30 -19 14 -1 93 36 80 37 -5 0 -28 -8
-50 -18z"/>
<path d="M1490 2409 c0 -5 5 -7 10 -4 6 3 10 8 10 11 0 2 -4 4 -10 4 -5 0 -10
-5 -10 -11z"/>
<path d="M1379 2303 c-13 -16 -12 -17 4 -4 9 7 17 15 17 17 0 8 -8 3 -21 -13z"/>
<path d="M1255 2167 c-33 -28 -73 -65 -90 -81 -27 -26 -25 -25 15 5 25 18 48
38 51 43 4 4 12 6 18 2 7 -5 9 -1 4 11 -3 10 -3 15 2 11 4 -4 14 -1 22 7 8 8
22 15 30 15 14 0 13 -3 -3 -22 -17 -19 -17 -21 -1 -15 9 4 17 4 17 0 0 -3 -8
-12 -17 -20 -10 -8 -12 -12 -5 -8 7 4 12 0 12 -10 0 -11 -5 -15 -15 -11 -8 3
-15 1 -15 -4 0 -6 6 -10 13 -10 8 0 22 -9 31 -19 10 -11 30 -22 45 -24 14 -2
-1 -5 -34 -7 -48 -2 -37 -5 55 -11 63 -4 163 -12 223 -16 59 -5 107 -6 107 -3
0 7 -386 220 -400 220 -3 0 -32 -24 -65 -53z"/>
<path d="M1117 2043 c-15 -15 -5 -23 26 -22 l32 2 -29 4 c-22 4 -26 7 -15 14
8 5 9 9 3 9 -6 0 -14 -3 -17 -7z"/>
<path d="M3297 1781 l-75 -69 59 -58 c32 -33 59 -65 61 -73 2 -8 20 -32 40
-55 62 -68 43 -61 -24 9 -34 36 -67 65 -71 65 -16 0 -76 58 -69 65 4 4 -3 3
-14 -3 -24 -13 -60 -105 -43 -111 6 -1 2 -9 -8 -17 -11 -8 -13 -13 -5 -14 7 0
30 -11 51 -25 21 -14 89 -46 152 -70 116 -46 135 -52 109 -35 -11 7 -11 10 -2
10 8 0 10 5 6 13 -4 6 9 -4 29 -22 24 -23 37 -30 37 -20 0 8 -18 33 -41 54
-40 40 -72 84 -50 71 16 -10 14 1 -5 30 -14 21 -15 31 -4 67 10 38 9 51 -9
105 -23 68 -26 84 -10 62 8 -11 9 -9 3 10 -12 44 -22 68 -32 74 -5 3 -43 -25
-85 -63z"/>
<path d="M2921 1830 c0 -8 8 -42 19 -75 19 -57 20 -58 15 -17 -6 45 -33 119
-34 92z"/>
<path d="M3174 1771 c8 -12 46 -21 46 -11 0 8 -24 20 -41 20 -6 0 -8 -4 -5 -9z"/>
<path d="M3460 1739 c0 -5 -4 -7 -10 -4 -13 8 -12 -11 3 -63 7 -23 16 -40 20
-36 4 4 16 -2 27 -14 26 -28 30 -28 30 4 0 14 -4 23 -9 19 -13 -7 -27 20 -36
68 -6 33 -25 53 -25 26z"/>
<path d="M3227 1678 c9 -13 40 -43 68 -68 41 -37 39 -33 -15 23 -66 69 -84 84
-53 45z"/>
<path d="M2961 1674 c0 -11 3 -14 6 -6 3 7 2 16 -1 19 -3 4 -6 -2 -5 -13z"/>
<path d="M2615 1660 c27 -12 43 -12 25 0 -8 5 -22 9 -30 9 -10 0 -8 -3 5 -9z"/>
<path d="M3471 1604 c0 -11 3 -14 6 -6 3 7 2 16 -1 19 -3 4 -6 -2 -5 -13z"/>
<path d="M2447 1579 c7 -7 15 -10 18 -7 3 3 -2 9 -12 12 -14 6 -15 5 -6 -5z"/>
<path d="M3486 1550 c4 -19 11 -44 15 -55 6 -14 7 -9 3 15 -4 19 -11 44 -15
55 -6 14 -7 9 -3 -15z"/>
<path d="M2485 1563 c10 -10 126 -88 203 -137 71 -44 47 -21 -39 39 -85 58
-181 116 -164 98z"/>
<path d="M3479 1466 c28 -30 41 -33 41 -8 0 14 -2 15 -10 2 -6 -9 -10 -10 -10
-3 0 7 -10 18 -22 24 -23 11 -23 11 1 -15z"/>
<path d="M2740 1396 c0 -3 9 -10 20 -16 11 -6 20 -8 20 -6 0 3 -9 10 -20 16
-11 6 -20 8 -20 6z"/>
<path d="M3116 1245 c-3 -9 -6 -22 -5 -28 0 -7 5 -1 10 12 5 13 8 26 5 28 -2
2 -6 -3 -10 -12z"/>
</g>
</svg>
