<?xml version="1.0" standalone="no"?>
<!DOCTYPE svg PUBLIC "-//W3C//DTD SVG 20010904//EN"
 "http://www.w3.org/TR/2001/REC-SVG-20010904/DTD/svg10.dtd">
<svg version="1.0" xmlns="http://www.w3.org/2000/svg"
 width="473.000000pt" height="528.000000pt" viewBox="0 0 473.000000 528.000000"
 preserveAspectRatio="xMidYMid meet">

<g transform="translate(0.000000,528.000000) scale(0.100000,-0.100000)"
fill="#000000" stroke="none">
<path d="M1604 3930 c-12 -5 -25 -14 -30 -21 -4 -8 -3 -10 4 -5 7 4 12 1 12
-9 0 -11 5 -15 15 -11 8 3 26 1 40 -4 51 -19 21 -100 -36 -100 -32 0 -49 17
-49 48 l0 25 -21 -27 c-11 -14 -25 -24 -30 -21 -13 9 -24 -43 -24 -115 0 -54
6 -77 33 -133 36 -72 67 -97 122 -97 73 0 115 93 115 255 0 85 -4 107 -24 148
-31 64 -76 88 -127 67z m-44 -180 c0 -21 -24 -28 -35 -10 -8 14 3 30 21 30 8
0 14 -9 14 -20z"/>
<path d="M2345 3928 c-119 -45 -193 -148 -202 -284 -5 -61 -2 -79 18 -118 40
-82 119 -123 216 -113 143 15 258 137 270 285 4 60 2 73 -24 121 -41 79 -93
113 -180 117 -37 2 -81 -1 -98 -8z m63 -70 c38 -38 -10 -118 -71 -118 -36 0
-50 11 -61 48 -11 33 41 82 86 82 19 0 39 -5 46 -12z m-135 -130 c7 -21 -4
-38 -23 -38 -23 0 -34 16 -26 35 7 18 43 20 49 3z m273 -163 c7 -18 -12 -45
-32 -45 -17 0 -18 32 -2 48 16 16 27 15 34 -3z"/>
<path d="M897 3729 c-222 -52 -370 -276 -337 -507 26 -182 127 -325 288 -404
66 -33 68 -33 214 -33 120 0 148 3 150 14 2 8 37 38 78 65 128 87 189 206 190
366 0 119 -21 193 -86 295 -33 53 -58 78 -86 88 -12 4 -15 2 -11 -8 3 -8 10
-12 17 -8 6 3 8 3 4 -2 -4 -4 -2 -15 5 -24 6 -9 -15 7 -48 36 -131 111 -254
151 -378 122z m225 -96 c159 -75 258 -234 258 -412 0 -144 -88 -290 -208 -347
-50 -24 -64 -26 -135 -21 -100 7 -172 41 -248 116 -97 98 -149 243 -134 379
14 127 114 268 218 306 69 25 169 17 249 -21z m-452 -523 c0 -15 70 -122 104
-159 l31 -35 -30 23 c-40 30 -77 76 -104 128 -23 45 -27 68 -11 58 6 -3 10
-10 10 -15z"/>
<path d="M2085 3200 c-3 -6 1 -7 9 -4 18 7 21 14 7 14 -6 0 -13 -4 -16 -10z"/>
<path d="M2153 3186 c7 -15 16 -21 21 -16 12 12 0 40 -18 40 -11 0 -12 -5 -3
-24z"/>
<path d="M2307 3195 c-15 -6 -24 -15 -20 -20 5 -4 3 -5 -3 -2 -12 7 -112 -28
-129 -44 -6 -6 -2 -12 13 -15 12 -4 22 -10 22 -14 0 -11 71 4 98 21 20 12 59
77 50 83 -1 2 -15 -2 -31 -9z"/>
<path d="M2388 2943 c-26 -16 -48 -51 -48 -76 0 -6 8 4 19 23 10 19 30 41 43
49 23 13 29 13 51 -2 16 -10 31 -34 38 -59 17 -58 32 -73 26 -26 -3 21 -13 52
-24 70 -22 39 -63 47 -105 21z"/>
<path d="M2322 2833 c-6 -11 -7 -25 -3 -32 6 -9 10 -5 15 14 9 33 1 44 -12 18z"/>
<path d="M1243 2766 c-6 -10 -28 -19 -61 -23 -58 -7 -68 -27 -32 -63 11 -11
16 -20 10 -20 -18 0 -11 -30 8 -31 11 0 12 -2 4 -6 -24 -9 8 -33 47 -34 l36
-2 -32 -6 -31 -6 44 -45 c24 -25 44 -39 44 -32 0 6 5 12 11 12 6 0 9 -6 6 -14
-3 -8 0 -20 8 -26 20 -16 39 -79 36 -117 -1 -24 3 -33 14 -33 12 0 14 -4 7
-16 -5 -9 -7 -25 -5 -35 4 -13 0 -19 -10 -19 -10 0 -13 6 -10 20 4 15 2 19 -9
15 -10 -4 -18 2 -23 17 -6 21 -8 21 -12 4 -3 -10 1 -22 9 -27 7 -5 14 -13 14
-19 1 -5 2 -14 3 -20 0 -5 12 -10 26 -10 19 0 26 7 34 33 5 17 10 24 10 14 2
-29 -18 -57 -39 -57 -13 0 -20 -7 -20 -18 0 -18 18 -42 32 -42 10 0 -3 33 -16
42 -6 4 5 8 24 8 26 0 31 -3 20 -10 -13 -8 -13 -10 2 -10 9 0 24 7 32 16 9 8
16 11 16 5 0 -6 -13 -17 -30 -26 -40 -21 -39 -39 2 -31 43 9 68 33 68 68 0 26
-3 28 -27 23 -27 -6 -27 -6 -9 9 22 18 17 30 -7 20 -9 -3 -18 -20 -20 -37 l-4
-32 -1 32 c-2 23 4 35 18 43 16 8 19 17 14 33 -9 30 -9 30 -36 18 l-23 -12 23
17 c21 16 32 42 12 29 -6 -3 -7 1 -4 9 4 12 0 16 -16 16 -12 0 -18 4 -15 10 4
6 11 8 16 5 5 -4 9 3 9 15 0 11 -6 23 -12 25 -7 3 -14 20 -15 38 -1 17 -14 59
-28 92 -15 33 -26 62 -25 64 1 2 -2 7 -7 10 -5 3 -14 19 -21 35 -10 22 -16 26
-24 18 -15 -15 -28 -15 -28 -2 0 6 6 10 14 10 24 0 26 15 7 44 -16 24 -20 26
-28 12z m-29 -118 c21 -30 20 -38 -4 -38 -11 0 -20 5 -20 11 0 5 5 7 10 4 6
-3 10 1 10 9 0 8 -8 20 -17 25 -10 6 -13 11 -6 11 6 0 19 -10 27 -22z m96 -12
c0 -8 -4 -17 -9 -21 -12 -7 -24 12 -16 25 9 15 25 12 25 -4z m10 -56 c-8 -5
-22 -9 -30 -9 -10 0 -8 3 5 9 27 12 43 12 25 0z m40 -41 c0 -6 -4 -7 -10 -4
-5 3 -10 11 -10 16 0 6 5 7 10 4 6 -3 10 -11 10 -16z m-56 -4 c3 -8 1 -15 -4
-15 -6 0 -10 7 -10 15 0 8 2 15 4 15 2 0 6 -7 10 -15z m46 -65 c0 -5 -2 -10
-4 -10 -3 0 -8 5 -11 10 -3 6 -1 10 4 10 6 0 11 -4 11 -10z m50 -34 c0 -3 -4
-8 -10 -11 -5 -3 -10 -1 -10 4 0 6 5 11 10 11 6 0 10 -2 10 -4z m-43 -28 c-3
-8 -6 -5 -6 6 -1 11 2 17 5 13 3 -3 4 -12 1 -19z"/>
<path d="M1815 2540 c10 -11 20 -20 23 -20 3 0 -3 9 -13 20 -10 11 -20 20 -23
20 -3 0 3 -9 13 -20z"/>
<path d="M2367 2420 c9 -16 20 -30 24 -30 4 0 1 14 -7 30 -9 17 -20 30 -25 30
-6 0 -2 -13 8 -30z"/>
<path d="M1846 2415 c-9 -26 -7 -32 5 -12 6 10 9 21 6 23 -2 3 -7 -2 -11 -11z"/>
<path d="M2507 2385 c-8 -8 -17 -12 -19 -9 -3 2 -12 -4 -22 -15 -14 -15 -14
-19 -3 -24 15 -5 67 36 67 53 0 14 -6 12 -23 -5z"/>
<path d="M1320 2310 c0 -5 5 -10 11 -10 5 0 7 5 4 10 -3 6 -8 10 -11 10 -2 0
-4 -4 -4 -10z"/>
<path d="M2384 2278 c-3 -10 -10 -18 -16 -18 -6 0 -9 -2 -6 -5 6 -6 68 27 68
35 0 15 -41 3 -46 -12z"/>
<path d="M2460 2280 c0 -5 5 -10 10 -10 6 0 10 5 10 10 0 6 -4 10 -10 10 -5 0
-10 -4 -10 -10z"/>
<path d="M2606 1968 c9 -59 14 -60 14 -5 0 26 -5 47 -10 47 -6 0 -8 -16 -4
-42z"/>
<path d="M3001 1905 l1 -50 8 40 c5 22 4 44 -1 50 -5 5 -9 -11 -8 -40z"/>
<path d="M2693 1863 c-10 -10 -14 -15 -8 -11 6 4 22 12 36 17 15 6 18 10 8 10
-9 1 -25 -7 -36 -16z"/>
<path d="M2650 1810 c-6 -12 -10 -33 -8 -48 2 -22 5 -18 14 21 12 51 11 58 -6
27z"/>
<path d="M2684 1756 c-3 -13 -4 -38 -2 -57 4 -31 7 -33 43 -36 21 -1 51 5 66
13 41 21 36 26 -7 8 -60 -25 -102 7 -90 67 7 35 -1 39 -10 5z"/>
<path d="M1967 1577 c-5 -13 -1 -17 19 -17 14 0 23 4 19 10 -4 6 -10 8 -15 5
-4 -3 -10 0 -12 7 -3 8 -7 6 -11 -5z"/>
<path d="M3227 1529 c-15 -27 -25 -49 -22 -49 6 0 58 90 54 95 -2 2 -16 -19
-32 -46z"/>
<path d="M2006 1064 c-5 -14 -4 -15 9 -4 17 14 19 20 6 20 -5 0 -12 -7 -15
-16z"/>
<path d="M3191 1049 c-14 -5 -31 -7 -39 -4 -8 3 -12 0 -9 -7 2 -7 13 -12 23
-10 45 6 64 13 64 22 0 12 -7 12 -39 -1z"/>
</g>
</svg>
